<?xml version="1.0"?>
<svg xmlns="http://www.w3.org/2000/svg" xmlns:xlink="http://www.w3.org/1999/xlink" xmlns:svgjs="http://svgjs.com/svgjs" version="1.1" width="512" height="512" x="0" y="0" viewBox="0 0 56 48" style="enable-background:new 0 0 512 512" xml:space="preserve" class=""><g><g xmlns="http://www.w3.org/2000/svg" id="Page-1" fill="none" fill-rule="evenodd"><g id="016---Mobile-Vet" fill="rgb(0,0,0)" fill-rule="nonzero"><path id="Shape" d="m13.024 13.447c.361 1.023 1.312 1.663 2.079 1.39.3669006-.143977.6498742-.4449347.771-.82.1731667-.508093.1664587-1.0602637-.019-1.564-.2222568-.7861161-.8973683-1.3600991-1.709-1.453-.1256254-.0004015-.2504042.020564-.369.062-.8387545.4726-1.1679062 1.5142579-.753 2.383z" fill="#428bca" data-original="#000000" style="" class=""/><circle id="Oval" cx="10" cy="19" r="1" fill="#428bca" data-original="#000000" style="" class=""/><path id="Shape" d="m19 32c7.7319865 0 14-6.2680135 14-14s-6.2680135-14-14-14-14 6.2680135-14 14c.00826732 7.7285595 6.2714405 13.9917327 14 14zm12-13c0 1.6568542-1.3431458 3-3 3s-3-1.3431458-3-3 1.3431458-3 3-3 3 1.3431458 3 3zm-10.742-7.209c.565795-1.99188696 2.6285383-3.15811487 4.627-2.616 1.8993153.8254237 2.7808421 3.0254506 1.977 4.934-.4970379 1.5921724-1.9341393 2.7055268-3.6 2.789-.3492757.0002062-.6961036-.0582745-1.026-.173-.9297924-.3365596-1.6580512-1.0747391-1.982-2.009-.3405099-.9455113-.3390946-1.9804235.004-2.925zm4.742 12.209c0 2.729-3.58 4-6 4s-6-1.271-6-4c0-2.421 1.254-7 6-7s6 4.579 6 7zm-11.885-14.824c1.9983806-.5439323 4.0621513.62243043 4.627 2.615.3418019.945044.3418019 1.979956 0 2.925-.3239488.9342609-1.0522076 1.6724404-1.982 2.009-.3298964.1147255-.6767243.1732062-1.026.173-1.6661801-.0826102-3.1037179-1.1963027-3.6-2.789-.8038665-1.9093566.0798425-4.10993015 1.981-4.933zm-6.115 9.824c0-1.6568542 1.34314575-3 3-3 1.6568542 0 3 1.3431458 3 3s-1.3431458 3-3 3c-1.65685425 0-3-1.3431458-3-3z" fill="#428bca" data-original="#000000" style="" class=""/><path id="Shape" d="m0 39c-.0019672.2605963.10154857.5109097.287.694.18530946.1959452.44330818.3066712.713.306h2.08c.09794526-.6931209.30023636-1.3674246.6-2h-2.68c-.55228475 0-1 .4477153-1 1z" fill="#428bca" data-original="#000000" style="" class=""/><path id="Shape" d="m10 34c1.8289299-.0004916 3.5847954.7178007 4.889 2h22.111v-35c0-.55228475-.4477153-1-1-1h-34c-.55228475 0-1 .44771525-1 1v35h4.111c1.30420462-1.2821993 3.0600701-2.0004916 4.889-2zm9-32c8.836556 0 16 7.163444 16 16s-7.163444 16-16 16-16-7.163444-16-16c.01046962-8.8322157 7.1677843-15.98953038 16-16z" fill="#428bca" data-original="#000000" style="" class=""/><path id="Shape" d="m22.9 14.837c.77.273 1.719-.367 2.079-1.39.4149062-.8687421.0857545-1.9104-.753-2.383-.1194267-.0424535-.2452521-.0641009-.372-.064-.8113632.09275-1.4864014.6662757-1.709 1.452-.1854587.5037363-.1921667 1.055907-.019 1.564.121517.3760732.4057347.6775495.774.821z" fill="#428bca" data-original="#000000" style="" class=""/><path id="Shape" d="m44 19h4.549l-2.188-10.209c-.0986004-.46135356-.5062277-.7910398-.978-.791h-2.383v10c0 .5522847.4477153 1 1 1z" fill="#428bca" data-original="#000000" style="" class=""/><circle id="Oval" cx="28" cy="19" r="1" fill="#428bca" data-original="#000000" style="" class=""/><path id="Shape" d="m19 26c1.812 0 4-.892 4-2 0-.2-.046-5-4-5s-4 4.8-4 5c0 1.108 2.188 2 4 2z" fill="#428bca" data-original="#000000" style="" class=""/><path id="Shape" d="m16.92 40h21.16c.0995303-.6933892.3035104-1.3677035.605-2h-22.37c.3014896.6322965.5054697 1.3066108.605 2z" fill="#428bca" data-original="#000000" style="" class=""/><circle id="Oval" cx="10" cy="41" r="1" fill="#428bca" data-original="#000000" style="" class=""/><path id="Shape" d="m45 36c-2.7614237 0-5 2.2385763-5 5s2.2385763 5 5 5 5-2.2385763 5-5c-.0033061-2.7600532-2.2399468-4.9966939-5-5zm0 8c-1.2133867 0-2.3072956-.7309265-2.7716386-1.8519497s-.2076757-2.4113767.6503183-3.2693706c.8579939-.857994 2.1483474-1.1146613 3.2693706-.6503183s1.8519497 1.5582519 1.8519497 2.7716386c0 1.6568542-1.3431458 3-3 3z" fill="#428bca" data-original="#000000" style="" class=""/><path id="Shape" d="m45 34c1.8289299-.0004916 3.5847954.7178007 4.889 2h4.1110001l-.0000001-8h-4c-.5522847 0-1-.4477153-1-1v-1c0-.5522847.4477153-1 1-1s1 .4477153 1 1h3v-1.646c.0001502-.4091919-.2490109-.7771898-.629-.929l-2.753-1.1c-.6334857-.2580182-1.1591394-.7257759-1.489-1.325h-5.129c-1.6568542 0-3-1.3431458-3-3v-10h-2v28h1.111c1.3042046-1.2821993 3.0600701-2.0004916 4.889-2z" fill="#428bca" data-original="#000000" style="" class=""/><path id="Shape" d="m55.713 38.306c-.1853095-.1959452-.4433082-.3066712-.713-.306l-3.685-.000003c.3014896.6322995.5054697 1.3066138.605 2.000003h3.08c.5522847 0 1-.4477153 1-1 .0019672-.2605963-.1015486-.5109097-.287-.694z" fill="#428bca" data-original="#000000" style="" class=""/><circle id="Oval" cx="45" cy="41" r="1" fill="#428bca" data-original="#000000" style="" class=""/><path id="Shape" d="m10 36c-2.76142375 0-5 2.2385763-5 5s2.23857625 5 5 5c2.7614237 0 5-2.2385763 5-5-.0033061-2.7600532-2.2399468-4.9966939-5-5zm0 8c-1.65685425 0-3-1.3431458-3-3s1.34314575-3 3-3c1.6568542 0 3 1.3431458 3 3s-1.3431458 3-3 3z" fill="#428bca" data-original="#000000" style="" class=""/><path id="Shape" d="m53 48h-51c-.55228475 0-1-.4477153-1-1s.44771525-1 1-1h51c.5522847 0 1 .4477153 1 1s-.4477153 1-1 1z" fill="#428bca" data-original="#000000" style="" class=""/></g></g></g></svg>
